<?xml version="1.0" encoding="UTF-8"?>
<svg xmlns="http://www.w3.org/2000/svg" viewBox="0 0 144 152" width="144" height="152">
  <rect width="144" height="152" fill="#0b1020"/>
  <rect x="56" y="16" width="8" height="8" fill="#5a3a1a"/>
  <rect x="64" y="16" width="8" height="8" fill="#5a3a1a"/>
  <rect x="72" y="16" width="8" height="8" fill="#5a3a1a"/>
  <rect x="80" y="16" width="8" height="8" fill="#5a3a1a"/>
  <rect x="56" y="24" width="8" height="8" fill="#5a3a1a"/>
  <rect x="64" y="24" width="8" height="8" fill="#8b5a2b"/>
  <rect x="72" y="24" width="8" height="8" fill="#8b5a2b"/>
  <rect x="80" y="24" width="8" height="8" fill="#5a3a1a"/>
  <rect x="56" y="32" width="8" height="8" fill="#5a3a1a"/>
  <rect x="64" y="32" width="8" height="8" fill="#8b5a2b"/>
  <rect x="72" y="32" width="8" height="8" fill="#8b5a2b"/>
  <rect x="80" y="32" width="8" height="8" fill="#5a3a1a"/>
  <rect x="48" y="40" width="8" height="8" fill="#c8e8ff"/>
  <rect x="56" y="40" width="8" height="8" fill="#c8e8ff"/>
  <rect x="64" y="40" width="8" height="8" fill="#c8e8ff"/>
  <rect x="72" y="40" width="8" height="8" fill="#c8e8ff"/>
  <rect x="80" y="40" width="8" height="8" fill="#c8e8ff"/>
  <rect x="88" y="40" width="8" height="8" fill="#c8e8ff"/>
  <rect x="40" y="48" width="8" height="8" fill="#c8e8ff"/>
  <rect x="96" y="48" width="8" height="8" fill="#c8e8ff"/>
  <rect x="32" y="56" width="8" height="8" fill="#c8e8ff"/>
  <rect x="56" y="56" width="8" height="8" fill="#3a7cff"/>
  <rect x="64" y="56" width="8" height="8" fill="#3a7cff"/>
  <rect x="72" y="56" width="8" height="8" fill="#3a7cff"/>
  <rect x="80" y="56" width="8" height="8" fill="#3a7cff"/>
  <rect x="104" y="56" width="8" height="8" fill="#c8e8ff"/>
  <rect x="32" y="64" width="8" height="8" fill="#c8e8ff"/>
  <rect x="48" y="64" width="8" height="8" fill="#3a7cff"/>
  <rect x="56" y="64" width="8" height="8" fill="#1e4fd6"/>
  <rect x="64" y="64" width="8" height="8" fill="#1e4fd6"/>
  <rect x="72" y="64" width="8" height="8" fill="#1e4fd6"/>
  <rect x="80" y="64" width="8" height="8" fill="#1e4fd6"/>
  <rect x="88" y="64" width="8" height="8" fill="#3a7cff"/>
  <rect x="104" y="64" width="8" height="8" fill="#c8e8ff"/>
  <rect x="24" y="72" width="8" height="8" fill="#c8e8ff"/>
  <rect x="40" y="72" width="8" height="8" fill="#3a7cff"/>
  <rect x="48" y="72" width="8" height="8" fill="#1e4fd6"/>
  <rect x="56" y="72" width="8" height="8" fill="#1e4fd6"/>
  <rect x="64" y="72" width="8" height="8" fill="#1e4fd6"/>
  <rect x="72" y="72" width="8" height="8" fill="#1e4fd6"/>
  <rect x="80" y="72" width="8" height="8" fill="#1e4fd6"/>
  <rect x="88" y="72" width="8" height="8" fill="#1e4fd6"/>
  <rect x="96" y="72" width="8" height="8" fill="#3a7cff"/>
  <rect x="112" y="72" width="8" height="8" fill="#c8e8ff"/>
  <rect x="24" y="80" width="8" height="8" fill="#c8e8ff"/>
  <rect x="40" y="80" width="8" height="8" fill="#3a7cff"/>
  <rect x="48" y="80" width="8" height="8" fill="#1e4fd6"/>
  <rect x="56" y="80" width="8" height="8" fill="#1e4fd6"/>
  <rect x="64" y="80" width="8" height="8" fill="#1e4fd6"/>
  <rect x="72" y="80" width="8" height="8" fill="#1e4fd6"/>
  <rect x="80" y="80" width="8" height="8" fill="#1e4fd6"/>
  <rect x="88" y="80" width="8" height="8" fill="#1e4fd6"/>
  <rect x="96" y="80" width="8" height="8" fill="#3a7cff"/>
  <rect x="112" y="80" width="8" height="8" fill="#c8e8ff"/>
  <rect x="24" y="88" width="8" height="8" fill="#c8e8ff"/>
  <rect x="40" y="88" width="8" height="8" fill="#3a7cff"/>
  <rect x="48" y="88" width="8" height="8" fill="#1e4fd6"/>
  <rect x="56" y="88" width="8" height="8" fill="#1e4fd6"/>
  <rect x="64" y="88" width="8" height="8" fill="#1e4fd6"/>
  <rect x="72" y="88" width="8" height="8" fill="#1e4fd6"/>
  <rect x="80" y="88" width="8" height="8" fill="#1e4fd6"/>
  <rect x="88" y="88" width="8" height="8" fill="#1e4fd6"/>
  <rect x="96" y="88" width="8" height="8" fill="#3a7cff"/>
  <rect x="112" y="88" width="8" height="8" fill="#c8e8ff"/>
  <rect x="24" y="96" width="8" height="8" fill="#c8e8ff"/>
  <rect x="40" y="96" width="8" height="8" fill="#3a7cff"/>
  <rect x="48" y="96" width="8" height="8" fill="#1e4fd6"/>
  <rect x="56" y="96" width="8" height="8" fill="#1e4fd6"/>
  <rect x="64" y="96" width="8" height="8" fill="#1e4fd6"/>
  <rect x="72" y="96" width="8" height="8" fill="#1e4fd6"/>
  <rect x="80" y="96" width="8" height="8" fill="#1e4fd6"/>
  <rect x="88" y="96" width="8" height="8" fill="#1e4fd6"/>
  <rect x="96" y="96" width="8" height="8" fill="#3a7cff"/>
  <rect x="112" y="96" width="8" height="8" fill="#c8e8ff"/>
  <rect x="24" y="104" width="8" height="8" fill="#c8e8ff"/>
  <rect x="48" y="104" width="8" height="8" fill="#3a7cff"/>
  <rect x="56" y="104" width="8" height="8" fill="#1e4fd6"/>
  <rect x="64" y="104" width="8" height="8" fill="#1e4fd6"/>
  <rect x="72" y="104" width="8" height="8" fill="#1e4fd6"/>
  <rect x="80" y="104" width="8" height="8" fill="#1e4fd6"/>
  <rect x="88" y="104" width="8" height="8" fill="#3a7cff"/>
  <rect x="112" y="104" width="8" height="8" fill="#c8e8ff"/>
  <rect x="32" y="112" width="8" height="8" fill="#c8e8ff"/>
  <rect x="56" y="112" width="8" height="8" fill="#3a7cff"/>
  <rect x="64" y="112" width="8" height="8" fill="#3a7cff"/>
  <rect x="72" y="112" width="8" height="8" fill="#3a7cff"/>
  <rect x="80" y="112" width="8" height="8" fill="#3a7cff"/>
  <rect x="104" y="112" width="8" height="8" fill="#c8e8ff"/>
  <rect x="40" y="120" width="8" height="8" fill="#c8e8ff"/>
  <rect x="96" y="120" width="8" height="8" fill="#c8e8ff"/>
  <rect x="48" y="128" width="8" height="8" fill="#c8e8ff"/>
  <rect x="56" y="128" width="8" height="8" fill="#c8e8ff"/>
  <rect x="64" y="128" width="8" height="8" fill="#c8e8ff"/>
  <rect x="72" y="128" width="8" height="8" fill="#c8e8ff"/>
  <rect x="80" y="128" width="8" height="8" fill="#c8e8ff"/>
  <rect x="88" y="128" width="8" height="8" fill="#c8e8ff"/>
</svg>
